<?xml version="1.0" encoding="UTF-8"?>
<svg xmlns="http://www.w3.org/2000/svg" viewBox="0 0 1040 836" width="1040" height="836" role="img" aria-label="Didier Stamatti Catering" shape-rendering="geometricPrecision">
<title>Didier Stamatti Catering</title>
<path d="M0 0 C0.858 0.001 1.715 0.003 2.599 0.004 C3.527 0.021 4.455 0.038 5.411 0.056 C6.398 0.062 7.386 0.068 8.404 0.074 C11.668 0.098 14.931 0.145 18.195 0.192 C20.471 0.215 22.747 0.237 25.023 0.257 C29.796 0.305 34.569 0.362 39.342 0.427 C45.438 0.51 51.533 0.572 57.629 0.625 C62.333 0.669 67.036 0.722 71.739 0.778 C73.985 0.803 76.231 0.827 78.477 0.848 C81.631 0.879 84.784 0.923 87.938 0.97 C88.854 0.977 89.769 0.984 90.713 0.991 C115.02 1.421 135.272 11.238 151.176 29.305 C159.108 39.379 163.229 50.128 166.562 62.336 C166.739 62.909 166.739 62.909 167.633 65.809 C169.57 73.159 169.708 80.366 169.696 87.919 C169.698 88.96 169.701 90.002 169.703 91.075 C169.709 94.554 169.709 98.032 169.708 101.51 C169.711 104.009 169.714 106.508 169.718 109.006 C169.726 115.082 169.729 121.157 169.73 127.232 C169.73 132.172 169.732 137.112 169.735 142.051 C169.744 156.069 169.749 170.088 169.748 184.106 C169.748 184.861 169.748 185.615 169.748 186.393 C169.748 187.149 169.748 187.905 169.748 188.683 C169.747 200.934 169.757 213.185 169.771 225.435 C169.785 238.027 169.792 250.619 169.791 263.211 C169.791 270.276 169.794 277.34 169.804 284.404 C169.815 291.047 169.814 297.69 169.807 304.332 C169.806 306.768 169.808 309.204 169.814 311.64 C169.822 314.969 169.817 318.298 169.81 321.627 C169.815 322.588 169.82 323.548 169.825 324.538 C169.795 330.395 169.068 335.68 167.562 341.336 C167.38 342.056 167.198 342.776 167.01 343.518 C163.438 357.526 158.326 370.406 148.562 381.336 C147.97 382.01 147.377 382.685 146.766 383.379 C126.911 404.588 101.351 406.821 74.137 406.7 C71.813 406.699 69.489 406.7 67.164 406.701 C62.329 406.701 57.494 406.691 52.659 406.672 C46.456 406.65 40.254 406.649 34.051 406.656 C29.268 406.659 24.486 406.653 19.703 406.643 C17.414 406.639 15.125 406.638 12.836 406.639 C9.653 406.64 6.471 406.627 3.288 406.611 C2.342 406.613 1.396 406.616 0.421 406.618 C-0.443 406.611 -1.308 406.604 -2.198 406.597 C-2.949 406.595 -3.7 406.593 -4.473 406.591 C-6.438 406.336 -6.438 406.336 -9.438 404.336 C-9.816 401.52 -9.816 401.52 -9.821 397.836 C-9.826 397.158 -9.831 396.479 -9.836 395.78 C-9.849 393.484 -9.84 391.189 -9.832 388.892 C-9.837 387.239 -9.843 385.585 -9.85 383.932 C-9.867 379.37 -9.864 374.808 -9.859 370.246 C-9.856 365.334 -9.871 360.421 -9.883 355.508 C-9.904 345.876 -9.909 336.245 -9.907 326.614 C-9.906 318.788 -9.909 310.963 -9.917 303.138 C-9.919 300.888 -9.921 298.638 -9.923 296.388 C-9.924 295.268 -9.925 294.148 -9.926 292.995 C-9.945 271.795 -9.944 250.596 -9.937 229.396 C-9.932 209.983 -9.953 190.569 -9.986 171.155 C-10.019 151.243 -10.035 131.331 -10.03 111.419 C-10.028 100.232 -10.033 89.044 -10.058 77.856 C-10.079 68.332 -10.083 58.808 -10.064 49.284 C-10.054 44.42 -10.053 39.558 -10.074 34.694 C-10.093 30.248 -10.088 25.801 -10.065 21.355 C-10.061 19.741 -10.066 18.127 -10.079 16.513 C-10.096 14.329 -10.083 12.147 -10.061 9.962 C-10.061 8.746 -10.062 7.531 -10.062 6.278 C-9.438 3.336 -9.438 3.336 -7.036 1.445 C-4.437 0.336 -2.799 -0.029 0 0 Z M49.562 61.336 C49.309 63.278 49.309 63.278 49.305 65.886 C49.299 66.876 49.292 67.865 49.286 68.885 C49.289 69.985 49.292 71.085 49.295 72.218 C49.291 73.377 49.286 74.535 49.281 75.729 C49.271 78.959 49.269 82.189 49.272 85.419 C49.272 88.896 49.261 92.374 49.252 95.852 C49.235 102.672 49.229 109.491 49.228 116.311 C49.227 121.852 49.223 127.393 49.217 132.934 C49.199 148.629 49.19 164.323 49.192 180.018 C49.192 180.865 49.192 181.712 49.192 182.585 C49.192 183.433 49.192 184.281 49.192 185.154 C49.193 198.9 49.174 212.646 49.146 226.392 C49.117 240.491 49.103 254.59 49.105 268.689 C49.105 276.611 49.1 284.532 49.078 292.454 C49.06 299.199 49.056 305.943 49.069 312.687 C49.076 316.131 49.076 319.574 49.059 323.017 C49.043 326.745 49.052 330.473 49.068 334.2 C49.058 335.296 49.047 336.392 49.037 337.521 C49.046 338.515 49.055 339.51 49.065 340.535 C49.064 341.396 49.064 342.257 49.063 343.144 C49.746 346.141 50.918 346.87 53.562 348.336 C56.314 348.549 58.809 348.596 61.547 348.481 C62.321 348.459 63.096 348.437 63.894 348.415 C65.531 348.366 67.169 348.309 68.806 348.245 C71.289 348.15 73.773 348.08 76.258 348.014 C77.854 347.963 79.451 347.91 81.047 347.856 C81.414 347.845 81.414 347.845 83.27 347.792 C92.021 347.427 98.533 345.844 104.566 339.094 C106.739 336.092 107.71 333.569 108.75 330.024 C109.074 328.955 109.397 327.886 109.73 326.785 C111.407 319.834 111.709 313.064 111.696 305.951 C111.697 305.495 111.697 305.495 111.703 303.184 C111.709 300.141 111.709 297.099 111.708 294.056 C111.711 291.867 111.714 289.679 111.718 287.49 C111.727 281.556 111.729 275.622 111.73 269.688 C111.73 265.977 111.733 262.267 111.735 258.556 C111.744 246.268 111.749 233.981 111.748 221.693 C111.748 221.362 111.748 221.362 111.748 219.689 C111.748 219.358 111.748 219.358 111.748 217.682 C111.747 207.623 111.755 197.564 111.768 187.505 C111.784 175.805 111.792 164.104 111.791 152.403 C111.791 146.217 111.794 140.031 111.804 133.844 C111.814 128.023 111.814 122.202 111.807 116.381 C111.806 114.251 111.808 112.121 111.814 109.991 C111.908 74.783 111.908 74.783 99.562 64.336 C99.222 64.048 99.222 64.048 97.5 62.586 C94.304 60.525 91.214 60.211 87.468 60.207 C86.674 60.204 85.88 60.201 85.062 60.197 C84.214 60.199 83.366 60.201 82.492 60.203 C81.615 60.202 80.737 60.202 79.833 60.201 C77.982 60.2 76.132 60.202 74.281 60.206 C71.441 60.211 68.601 60.206 65.762 60.2 C63.964 60.2 62.165 60.201 60.367 60.203 C59.515 60.201 58.663 60.199 57.785 60.197 C51.792 60.221 51.792 60.221 49.562 61.336 Z " fill="#000000" transform="translate(26.437530517578125,14.663742065429688)"/>
<path d="M0 0 C0.516 -0.005 0.516 -0.005 3.125 -0.028 C4.232 -0.017 5.339 -0.006 6.48 0.006 C7.622 0.004 8.763 0.003 9.939 0.001 C12.351 0.003 14.762 0.014 17.174 0.035 C20.872 0.064 24.569 0.056 28.267 0.043 C30.609 0.049 32.951 0.057 35.293 0.068 C36.402 0.065 37.512 0.062 38.655 0.059 C39.169 0.066 39.169 0.066 41.77 0.098 C42.222 0.1 42.222 0.1 44.512 0.114 C47.405 0.6 48.097 1.14 49.82 3.502 C50.195 6.443 50.195 6.443 50.195 10.128 C50.199 10.808 50.203 11.488 50.207 12.188 C50.217 14.483 50.206 16.778 50.194 19.073 C50.197 20.728 50.201 22.383 50.206 24.038 C50.217 28.6 50.209 33.161 50.198 37.722 C50.189 42.636 50.197 47.551 50.203 52.465 C50.213 62.096 50.206 71.728 50.194 81.36 C50.181 92.566 50.182 103.772 50.184 114.979 C50.188 134.967 50.176 154.955 50.156 174.944 C50.137 194.359 50.13 213.775 50.136 233.19 C50.142 254.311 50.142 275.432 50.13 296.553 C50.129 298.803 50.128 301.054 50.127 303.304 C50.126 304.411 50.125 305.518 50.125 306.659 C50.121 314.479 50.121 322.299 50.123 330.118 C50.125 339.641 50.12 349.164 50.106 358.687 C50.098 363.55 50.094 368.413 50.099 373.276 C50.103 377.721 50.098 382.167 50.085 386.612 C50.082 388.226 50.083 389.841 50.087 391.455 C50.092 393.637 50.085 395.819 50.075 398.001 C50.074 398.609 50.074 398.609 50.072 401.686 C49.82 404.502 49.82 404.502 47.82 406.502 C45.505 406.762 45.505 406.762 42.576 406.776 C41.481 406.786 40.387 406.795 39.259 406.805 C38.073 406.804 36.886 406.803 35.664 406.802 C34.451 406.807 33.237 406.811 31.987 406.815 C29.418 406.821 26.849 406.822 24.281 406.817 C20.336 406.814 16.393 406.838 12.449 406.863 C9.958 406.865 7.467 406.866 4.976 406.865 C3.79 406.874 2.603 406.883 1.381 406.893 C0.286 406.887 -0.808 406.88 -1.936 406.874 C-2.419 406.874 -2.419 406.874 -4.865 406.876 C-7.18 406.502 -7.18 406.502 -9.18 403.502 C-9.433 400.575 -9.433 400.575 -9.437 396.912 C-9.439 396.574 -9.439 396.574 -9.448 394.864 C-9.457 392.583 -9.452 390.302 -9.447 388.02 C-9.451 386.375 -9.456 384.729 -9.461 383.084 C-9.473 378.549 -9.473 374.014 -9.471 369.479 C-9.47 364.594 -9.481 359.708 -9.491 354.823 C-9.507 345.247 -9.513 335.67 -9.514 326.094 C-9.515 318.314 -9.519 310.533 -9.525 302.752 C-9.543 280.711 -9.552 258.669 -9.551 236.627 C-9.551 235.438 -9.551 234.249 -9.551 233.024 C-9.55 231.833 -9.55 230.643 -9.55 229.416 C-9.549 210.113 -9.569 190.81 -9.597 171.508 C-9.626 151.705 -9.639 131.903 -9.638 112.1 C-9.637 100.975 -9.643 89.851 -9.664 78.726 C-9.682 69.256 -9.687 59.786 -9.673 50.315 C-9.666 45.481 -9.666 40.646 -9.684 35.811 C-9.699 31.389 -9.697 26.967 -9.679 22.545 C-9.676 20.941 -9.68 19.338 -9.691 17.734 C-9.705 15.561 -9.694 13.39 -9.678 11.217 C-9.678 10.612 -9.678 10.612 -9.679 7.553 C-8.742 1.821 -5.518 0.001 0 0 Z " fill="#000000" transform="translate(242.179931640625,14.498291015625)"/>
<path d="M0 0 C0.862 0.003 1.724 0.006 2.612 0.008 C3.555 0.022 4.497 0.035 5.469 0.049 C5.967 0.052 5.967 0.052 8.486 0.068 C11.788 0.091 15.09 0.13 18.393 0.169 C20.692 0.19 22.99 0.211 25.289 0.231 C30.117 0.275 34.945 0.326 39.772 0.383 C45.936 0.454 52.099 0.508 58.262 0.557 C63.016 0.596 67.769 0.645 72.523 0.696 C74.793 0.72 77.064 0.74 79.334 0.758 C116.624 1.068 116.624 1.068 123.772 8.216 C124.36 8.422 124.36 8.422 127.334 9.466 C146.431 16.373 158.779 35.041 165.772 53.216 C172.165 72.065 172.071 91.901 172.031 111.59 C172.033 113.859 172.037 116.128 172.041 118.397 C172.05 124.498 172.047 130.599 172.04 136.701 C172.035 143.121 172.04 149.541 172.043 155.962 C172.047 167.424 172.041 178.885 172.031 190.347 C172.022 200.701 172.023 211.055 172.032 221.408 C172.043 233.489 172.047 245.57 172.041 257.651 C172.038 264.025 172.038 270.399 172.044 276.774 C172.05 282.767 172.046 288.761 172.035 294.754 C172.032 296.94 172.033 299.125 172.037 301.311 C172.096 333.284 172.096 333.284 167.647 348.404 C167.436 349.137 167.225 349.871 167.007 350.626 C160.171 372.949 145.741 389.855 124.589 399.395 C123.064 400.084 121.555 400.804 120.049 401.532 C105.919 407.925 88.971 406.513 73.846 406.482 C71.563 406.483 69.28 406.485 66.997 406.487 C62.246 406.49 57.495 406.486 52.744 406.477 C46.645 406.465 40.546 406.472 34.447 406.484 C29.749 406.491 25.051 406.489 20.352 406.484 C18.101 406.482 15.851 406.484 13.6 406.489 C10.472 406.494 7.344 406.486 4.216 406.475 C3.283 406.479 2.351 406.483 1.39 406.487 C0.543 406.481 -0.305 406.476 -1.178 406.47 C-1.917 406.469 -2.655 406.468 -3.415 406.468 C-5.228 406.216 -5.228 406.216 -7.228 404.216 C-7.48 401.392 -7.48 401.392 -7.483 397.697 C-7.486 397.017 -7.489 396.336 -7.492 395.635 C-7.501 393.333 -7.495 391.03 -7.489 388.727 C-7.492 387.069 -7.496 385.411 -7.501 383.752 C-7.511 379.177 -7.509 374.602 -7.504 370.027 C-7.502 365.1 -7.511 360.173 -7.518 355.246 C-7.531 345.586 -7.533 335.927 -7.531 326.268 C-7.529 318.421 -7.531 310.574 -7.535 302.727 C-7.535 301.612 -7.536 300.497 -7.537 299.349 C-7.538 297.084 -7.539 294.82 -7.54 292.555 C-7.551 271.298 -7.549 250.041 -7.543 228.784 C-7.538 209.315 -7.549 189.846 -7.568 170.376 C-7.587 150.409 -7.596 130.441 -7.592 110.474 C-7.59 99.254 -7.592 88.035 -7.607 76.815 C-7.618 67.265 -7.62 57.714 -7.608 48.164 C-7.602 43.287 -7.601 38.41 -7.613 33.532 C-7.624 29.074 -7.621 24.616 -7.607 20.157 C-7.604 18.538 -7.606 16.919 -7.614 15.3 C-7.624 13.111 -7.616 10.923 -7.603 8.735 C-7.603 7.515 -7.603 6.296 -7.603 5.04 C-6.981 0.357 -4.16 -0.037 0 0 Z M50.772 62.216 C50.521 64.254 50.521 64.254 50.52 66.821 C50.515 67.797 50.51 68.773 50.504 69.779 C50.509 70.86 50.513 71.94 50.518 73.053 C50.515 74.194 50.512 75.336 50.508 76.512 C50.502 79.69 50.504 82.869 50.51 86.047 C50.515 89.471 50.508 92.895 50.502 96.319 C50.493 103.032 50.495 109.744 50.501 116.456 C50.506 121.912 50.506 127.367 50.504 132.822 C50.504 133.597 50.503 134.373 50.503 135.172 C50.503 136.747 50.502 138.322 50.501 139.897 C50.496 154.682 50.502 169.466 50.513 184.251 C50.522 196.941 50.52 209.63 50.511 222.32 C50.5 237.046 50.496 251.772 50.502 266.498 C50.503 268.068 50.503 269.638 50.504 271.209 C50.504 271.981 50.505 272.754 50.505 273.55 C50.507 278.998 50.504 284.446 50.499 289.894 C50.494 296.534 50.495 303.175 50.506 309.815 C50.511 313.204 50.513 316.593 50.506 319.982 C50.501 323.654 50.508 327.326 50.518 330.998 C50.513 332.072 50.509 333.145 50.504 334.251 C50.509 335.236 50.515 336.22 50.52 337.233 C50.52 338.081 50.521 338.929 50.521 339.802 C50.814 342.621 51.449 344.709 52.772 347.216 C59.479 348.94 66.597 348.239 73.477 348.029 C75.634 347.966 77.79 347.925 79.948 347.884 C99.068 347.405 99.068 347.405 104.647 340.466 C114.728 327.615 113.066 310.606 113.046 295.146 C113.051 292.921 113.056 290.696 113.062 288.47 C113.075 282.454 113.076 276.437 113.073 270.42 C113.072 265.386 113.077 260.351 113.082 255.317 C113.094 242.756 113.093 230.194 113.086 217.633 C113.081 206.754 113.092 195.874 113.111 184.995 C113.131 173.791 113.139 162.588 113.135 151.385 C113.134 145.108 113.136 138.831 113.15 132.554 C113.163 126.649 113.161 120.744 113.148 114.84 C113.145 112.681 113.148 110.523 113.156 108.365 C113.276 74.788 113.276 74.788 102.776 65.439 C98.517 62.117 95.213 60.1 89.699 60.071 C88.885 60.064 88.071 60.058 87.232 60.051 C86.357 60.05 85.482 60.049 84.58 60.048 C83.679 60.045 82.778 60.041 81.85 60.038 C79.946 60.033 78.042 60.031 76.138 60.031 C73.217 60.029 70.296 60.01 67.375 59.991 C65.527 59.988 63.679 59.986 61.83 59.986 C60.953 59.978 60.076 59.971 59.172 59.964 C53.001 59.987 53.001 59.987 50.772 62.216 Z " fill="#000000" transform="translate(341.22825622558594,14.78399658203125)"/>
<path d="M0 0 C0.514 -0.006 0.514 -0.006 3.115 -0.038 C4.219 -0.036 5.323 -0.033 6.461 -0.03 C7.6 -0.035 8.739 -0.04 9.913 -0.045 C12.32 -0.052 14.727 -0.051 17.135 -0.042 C20.822 -0.033 24.508 -0.062 28.195 -0.094 C30.534 -0.096 32.872 -0.095 35.211 -0.092 C36.315 -0.103 37.419 -0.115 38.557 -0.126 C39.585 -0.117 40.613 -0.107 41.672 -0.098 C42.575 -0.097 43.478 -0.097 44.408 -0.097 C47.715 0.586 48.756 1.761 50.836 4.404 C51.335 7.456 51.335 7.456 51.334 11.119 C51.339 11.797 51.344 12.474 51.35 13.172 C51.362 15.452 51.346 17.732 51.33 20.012 C51.334 21.66 51.339 23.307 51.345 24.954 C51.358 29.488 51.346 34.022 51.33 38.557 C51.316 43.444 51.326 48.331 51.333 53.218 C51.343 62.794 51.332 72.37 51.314 81.947 C51.293 93.091 51.293 104.234 51.294 115.378 C51.295 135.256 51.277 155.134 51.248 175.012 C51.219 194.317 51.205 213.622 51.207 232.926 C51.207 233.521 51.207 233.521 51.207 236.529 C51.207 237.123 51.207 237.123 51.207 240.126 C51.208 262.082 51.197 284.037 51.179 305.992 C51.173 313.766 51.171 321.541 51.17 329.316 C51.168 338.785 51.159 348.254 51.141 357.723 C51.132 362.558 51.126 367.393 51.128 372.227 C51.13 376.648 51.123 381.069 51.109 385.489 C51.105 387.094 51.105 388.698 51.108 390.302 C51.113 392.473 51.104 394.644 51.093 396.815 C51.092 398.024 51.09 399.232 51.089 400.478 C50.836 403.404 50.836 403.404 48.836 406.404 C46.483 406.778 46.483 406.778 43.5 406.776 C42.385 406.783 41.271 406.789 40.123 406.795 C38.914 406.786 37.706 406.777 36.461 406.767 C35.226 406.768 33.99 406.768 32.717 406.769 C29.43 406.766 26.143 406.749 22.856 406.727 C20.838 406.717 18.82 406.716 16.803 406.72 C12.939 406.726 9.075 406.718 5.211 406.705 C4.003 406.706 2.794 406.707 1.549 406.708 C0.435 406.698 -0.68 406.689 -1.828 406.679 C-2.32 406.676 -2.32 406.676 -4.811 406.665 C-7.164 406.404 -7.164 406.404 -9.164 404.404 C-9.417 401.588 -9.417 401.588 -9.421 397.904 C-9.425 397.225 -9.428 396.547 -9.432 395.848 C-9.441 393.552 -9.436 391.256 -9.431 388.96 C-9.435 387.307 -9.44 385.653 -9.445 383.999 C-9.458 379.438 -9.457 374.876 -9.455 370.314 C-9.454 365.401 -9.465 360.489 -9.475 355.576 C-9.492 345.944 -9.497 336.313 -9.498 326.681 C-9.499 318.856 -9.503 311.031 -9.51 303.206 C-9.527 281.043 -9.536 258.879 -9.535 236.716 C-9.535 235.52 -9.535 234.324 -9.535 233.092 C-9.535 231.895 -9.535 230.698 -9.534 229.464 C-9.534 210.05 -9.553 190.637 -9.581 171.223 C-9.61 151.311 -9.623 131.399 -9.622 111.487 C-9.621 100.299 -9.627 89.112 -9.648 77.924 C-9.666 68.4 -9.671 58.876 -9.657 49.351 C-9.651 44.488 -9.651 39.625 -9.668 34.762 C-9.683 30.316 -9.681 25.869 -9.663 21.422 C-9.66 19.809 -9.664 18.195 -9.675 16.581 C-9.689 14.397 -9.679 12.214 -9.662 10.03 C-9.662 8.814 -9.663 7.598 -9.663 6.346 C-9.164 3.404 -9.164 3.404 -7.285 1.514 C-4.692 0.157 -2.922 0.017 0 0 Z " fill="#000000" transform="translate(558.1640625,14.595947265625)"/>
<path d="M0 0 C1.27 -0.007 2.541 -0.014 3.849 -0.021 C5.255 -0.014 6.66 -0.006 8.065 0.002 C9.547 -0.001 11.029 -0.004 12.511 -0.009 C16.533 -0.019 20.556 -0.009 24.578 0.004 C28.787 0.015 32.996 0.011 37.205 0.009 C44.273 0.009 51.341 0.02 58.41 0.038 C66.583 0.059 74.755 0.063 82.928 0.056 C90.789 0.051 98.65 0.056 106.51 0.068 C109.856 0.072 113.202 0.073 116.548 0.071 C120.488 0.069 124.428 0.077 128.367 0.093 C129.814 0.097 131.26 0.098 132.707 0.095 C134.68 0.092 136.653 0.103 138.627 0.114 C139.179 0.115 139.179 0.115 141.974 0.12 C144.804 0.373 146.481 0.77 148.813 2.374 C149.308 4.727 149.308 4.727 149.299 7.71 C149.302 8.267 149.302 8.267 149.318 11.088 C149.311 11.692 149.311 11.692 149.274 14.749 C149.273 15.985 149.272 17.22 149.272 18.493 C149.264 21.78 149.238 25.067 149.205 28.354 C149.178 31.7 149.184 35.045 149.184 38.39 C149.175 40.926 149.163 43.463 149.149 45.999 C149.147 47.208 149.145 48.416 149.143 49.661 C149.13 50.775 149.117 51.89 149.104 53.038 C149.096 54.023 149.089 55.007 149.081 56.021 C148.813 58.374 148.813 58.374 146.813 60.374 C143.741 60.592 140.757 60.686 137.682 60.693 C136.736 60.703 135.789 60.713 134.814 60.724 C131.676 60.754 128.538 60.771 125.399 60.788 C123.227 60.807 121.055 60.827 118.884 60.847 C113.159 60.898 107.435 60.938 101.711 60.975 C95.872 61.015 90.034 61.066 84.196 61.116 C72.735 61.213 61.274 61.298 49.813 61.374 C48.978 64.278 48.699 66.824 48.731 69.841 C48.738 70.73 48.745 71.619 48.752 72.535 C48.765 73.503 48.778 74.47 48.792 75.467 C48.801 76.492 48.811 77.516 48.821 78.572 C48.854 81.959 48.894 85.346 48.934 88.734 C48.959 91.082 48.983 93.43 49.006 95.779 C49.069 101.96 49.138 108.142 49.208 114.323 C49.279 120.63 49.344 126.938 49.409 133.245 C49.538 145.622 49.674 157.998 49.813 170.374 C50.759 170.38 51.704 170.386 52.678 170.392 C61.581 170.449 70.483 170.522 79.385 170.61 C83.962 170.655 88.539 170.694 93.116 170.721 C97.532 170.747 101.947 170.787 106.363 170.837 C108.049 170.854 109.735 170.866 111.421 170.872 C113.78 170.881 116.138 170.909 118.496 170.942 C119.196 170.94 119.896 170.939 120.617 170.938 C123.371 170.991 125.377 171.104 127.747 172.572 C129.2 175.029 129.188 176.79 129.186 179.64 C129.192 180.715 129.198 181.789 129.205 182.896 C129.2 183.476 129.2 183.476 129.177 186.409 C129.177 187.004 129.177 187.004 129.178 190.014 C129.176 192.53 129.166 195.046 129.15 197.562 C129.126 201.425 129.129 205.287 129.136 209.15 C129.13 211.59 129.123 214.031 129.114 216.472 C129.115 217.633 129.116 218.795 129.117 219.991 C129.107 221.063 129.098 222.134 129.088 223.238 C129.083 224.184 129.079 225.129 129.074 226.104 C128.813 228.374 128.813 228.374 126.813 230.374 C124.346 230.591 121.988 230.686 119.518 230.693 C118.754 230.703 117.991 230.713 117.204 230.724 C114.728 230.755 112.251 230.772 109.774 230.788 C108.247 230.805 106.72 230.823 105.193 230.842 C99.525 230.905 93.857 230.951 88.188 230.999 C75.525 231.123 62.861 231.247 49.813 231.374 C49.813 269.324 49.813 307.274 49.813 346.374 C97.626 346.749 97.626 346.749 112.731 346.852 C118.811 346.907 118.811 346.907 121.656 346.935 C123.646 346.952 125.636 346.966 127.626 346.977 C130.637 346.994 133.649 347.023 136.66 347.055 C137.549 347.058 138.437 347.06 139.353 347.062 C140.163 347.073 140.973 347.084 141.808 347.096 C142.513 347.101 143.218 347.107 143.945 347.113 C145.813 347.374 145.813 347.374 148.813 349.374 C149.188 351.689 149.188 351.689 149.186 354.618 C149.192 355.713 149.198 356.807 149.205 357.935 C149.2 358.528 149.2 358.528 149.177 361.53 C149.177 362.137 149.177 362.137 149.178 365.207 C149.176 367.776 149.166 370.345 149.15 372.914 C149.126 376.858 149.129 380.801 149.136 384.745 C149.13 387.236 149.123 389.727 149.114 392.218 C149.115 393.404 149.116 394.591 149.117 395.813 C149.107 396.908 149.098 398.002 149.088 399.13 C149.083 400.097 149.079 401.063 149.074 402.059 C148.813 404.374 148.813 404.374 146.813 406.374 C144.152 406.626 144.152 406.626 140.702 406.628 C139.398 406.634 138.094 406.639 136.75 406.645 C135.297 406.641 133.843 406.637 132.39 406.633 C130.865 406.636 129.341 406.639 127.817 406.644 C123.671 406.653 119.524 406.649 115.377 406.643 C111.045 406.638 106.712 406.643 102.38 406.646 C95.103 406.649 87.826 406.644 80.549 406.635 C72.127 406.624 63.706 406.628 55.284 406.639 C48.063 406.648 40.842 406.649 33.62 406.644 C29.303 406.641 24.986 406.64 20.669 406.647 C16.611 406.653 12.553 406.649 8.495 406.637 C7.003 406.634 5.51 406.635 4.018 406.64 C1.987 406.645 -0.044 406.637 -2.075 406.628 C-2.644 406.628 -2.644 406.628 -5.525 406.626 C-8.187 406.374 -8.187 406.374 -10.187 404.374 C-10.44 401.558 -10.44 401.558 -10.444 397.874 C-10.447 397.195 -10.451 396.517 -10.455 395.818 C-10.464 393.522 -10.459 391.226 -10.454 388.93 C-10.458 387.277 -10.462 385.623 -10.468 383.969 C-10.48 379.408 -10.48 374.846 -10.477 370.284 C-10.477 365.372 -10.488 360.459 -10.498 355.546 C-10.514 345.914 -10.52 336.283 -10.521 326.651 C-10.522 318.826 -10.526 311.001 -10.532 303.176 C-10.55 281.013 -10.559 258.85 -10.557 236.686 C-10.557 235.49 -10.557 234.295 -10.557 233.062 C-10.557 231.865 -10.557 230.668 -10.557 229.434 C-10.556 210.021 -10.575 190.607 -10.604 171.193 C-10.632 151.281 -10.646 131.369 -10.644 111.457 C-10.644 100.269 -10.649 89.082 -10.671 77.894 C-10.689 68.37 -10.693 58.846 -10.68 49.322 C-10.673 44.458 -10.673 39.596 -10.69 34.732 C-10.706 30.286 -10.703 25.839 -10.686 21.393 C-10.683 19.779 -10.686 18.165 -10.698 16.551 C-10.712 14.367 -10.701 12.184 -10.684 10 C-10.685 8.784 -10.685 7.569 -10.686 6.316 C-10.187 3.374 -10.187 3.374 -8.333 1.484 C-5.442 -0.011 -3.251 -0 0 0 Z " fill="#000000" transform="translate(660.1866455078125,14.625778198242188)"/>
<path d="M0 0 C0.837 0.003 1.673 0.006 2.535 0.008 C3.45 0.022 4.365 0.035 5.307 0.049 C6.274 0.055 7.24 0.062 8.235 0.068 C11.441 0.091 14.645 0.13 17.85 0.169 C20.082 0.19 22.313 0.211 24.545 0.231 C29.231 0.275 33.918 0.326 38.605 0.383 C44.586 0.454 50.568 0.508 56.549 0.557 C61.164 0.596 65.779 0.645 70.394 0.696 C72.597 0.72 74.8 0.74 77.004 0.758 C103.797 0.988 130.319 4.464 148.581 26.4 C157.9 37.964 162.433 49.333 165.011 63.904 C165.18 64.795 165.348 65.686 165.522 66.605 C168.061 80.67 168.072 94.802 168.071 109.047 C168.073 112.078 168.091 115.11 168.11 118.142 C168.143 129.348 167.665 140.143 165.886 151.216 C165.75 152.125 165.615 153.033 165.475 153.969 C162.317 174.011 153.472 190.926 137.886 204.216 C135.077 205.505 135.077 205.505 132.886 206.216 C133.242 208.8 133.492 209.914 135.6 211.532 C136.334 211.944 137.067 212.355 137.823 212.779 C153.892 222.936 161.142 239.659 165.073 257.466 C165.24 258.203 165.407 258.941 165.579 259.7 C168.442 273.475 168.029 287.773 168.054 301.771 C168.062 304.999 168.077 308.227 168.096 311.455 C168.148 320.623 168.196 329.79 168.212 338.957 C168.222 344.597 168.251 350.235 168.293 355.874 C168.305 358 168.31 360.126 168.308 362.252 C168.299 374.145 168.998 385.072 172.031 396.603 C172.757 399.671 173.165 402.094 172.886 405.216 C171.185 406.916 169.006 406.361 166.679 406.377 C165.568 406.387 164.456 406.396 163.311 406.406 C162.706 406.408 162.706 406.408 159.643 406.419 C159.026 406.422 159.026 406.422 155.903 406.436 C153.285 406.446 150.667 406.452 148.049 406.456 C145.36 406.461 142.672 406.475 139.983 406.497 C136.12 406.528 132.257 406.538 128.393 406.544 C127.187 406.556 125.981 406.569 124.738 406.582 C123.62 406.579 122.503 406.576 121.351 406.572 C120.366 406.576 119.381 406.58 118.366 406.583 C115.452 406.152 114.591 405.581 112.886 403.216 C111.972 399.888 111.972 399.888 111.261 395.966 C111.021 394.682 110.781 393.398 110.534 392.075 C110.32 390.802 110.106 389.528 109.886 388.216 C109.711 387.185 109.536 386.155 109.356 385.093 C108.796 380.48 108.726 375.966 108.712 371.324 C108.705 370.356 108.699 369.387 108.692 368.39 C108.678 366.296 108.666 364.201 108.656 362.107 C108.639 358.785 108.616 355.463 108.591 352.141 C108.52 342.699 108.46 333.256 108.409 323.813 C108.377 318.028 108.336 312.243 108.289 306.457 C108.273 304.262 108.26 302.066 108.252 299.87 C108.239 296.788 108.215 293.707 108.189 290.625 C108.188 289.731 108.187 288.837 108.187 287.916 C108.019 273.144 104.672 257.127 92.886 247.216 C83.577 242.385 73.018 241.921 62.761 242.091 C61.709 242.1 60.657 242.109 59.573 242.118 C57.01 242.142 54.448 242.174 51.886 242.216 C51.887 243.049 51.889 243.882 51.891 244.74 C51.935 264.987 51.968 285.233 51.989 305.479 C52 315.27 52.014 325.06 52.037 334.851 C52.056 343.382 52.069 351.913 52.074 360.444 C52.076 364.964 52.083 369.483 52.097 374.003 C52.111 378.253 52.115 382.503 52.112 386.753 C52.112 388.316 52.116 389.879 52.124 391.443 C52.134 393.57 52.132 395.698 52.126 397.825 C52.128 399.018 52.13 400.211 52.132 401.44 C51.886 404.216 51.886 404.216 49.886 406.216 C47.571 406.47 47.571 406.47 44.641 406.475 C44.094 406.478 44.094 406.478 41.325 406.494 C40.138 406.49 38.952 406.486 37.729 406.482 C36.516 406.484 35.303 406.485 34.053 406.487 C31.484 406.489 28.915 406.485 26.346 406.477 C22.402 406.466 18.459 406.477 14.515 406.489 C12.024 406.488 9.533 406.486 7.042 406.482 C6.449 406.484 6.449 406.484 3.447 406.494 C2.352 406.488 1.257 406.481 0.13 406.475 C-0.354 406.474 -0.354 406.474 -2.799 406.47 C-5.114 406.216 -5.114 406.216 -7.114 404.216 C-7.366 401.392 -7.366 401.392 -7.369 397.697 C-7.372 397.017 -7.375 396.336 -7.379 395.635 C-7.387 393.333 -7.381 391.03 -7.375 388.727 C-7.378 387.069 -7.382 385.411 -7.387 383.752 C-7.397 379.177 -7.395 374.602 -7.39 370.027 C-7.388 365.1 -7.397 360.173 -7.405 355.246 C-7.417 345.586 -7.419 335.927 -7.417 326.268 C-7.415 318.421 -7.417 310.574 -7.421 302.727 C-7.422 301.612 -7.422 300.497 -7.423 299.349 C-7.424 297.084 -7.425 294.82 -7.426 292.555 C-7.437 271.298 -7.435 250.041 -7.429 228.784 C-7.424 209.315 -7.435 189.846 -7.454 170.376 C-7.473 150.409 -7.482 130.441 -7.478 110.474 C-7.476 99.254 -7.479 88.035 -7.493 76.815 C-7.505 67.265 -7.506 57.714 -7.494 48.164 C-7.488 43.287 -7.487 38.41 -7.499 33.532 C-7.51 29.074 -7.507 24.616 -7.493 20.157 C-7.49 18.538 -7.492 16.919 -7.5 15.3 C-7.51 13.111 -7.502 10.923 -7.489 8.735 C-7.489 7.515 -7.489 6.296 -7.489 5.04 C-6.876 0.418 -4.126 -0.038 0 0 Z M52.886 60.216 C51.075 63.579 50.64 66.428 50.67 70.208 C50.672 71.188 50.675 72.168 50.678 73.177 C50.691 74.241 50.705 75.305 50.719 76.4 C50.725 77.529 50.731 78.658 50.738 79.821 C50.761 83.551 50.799 87.28 50.839 91.009 C50.86 93.598 50.88 96.187 50.9 98.775 C50.944 104.198 50.995 109.621 51.052 115.044 C51.118 121.317 51.169 127.59 51.212 133.863 C51.254 139.898 51.308 145.933 51.366 151.968 C51.389 154.537 51.41 157.106 51.428 159.675 C51.454 163.257 51.493 166.838 51.535 170.42 C51.54 171.49 51.546 172.559 51.551 173.661 C51.565 174.633 51.579 175.604 51.594 176.605 C51.602 177.452 51.61 178.3 51.618 179.172 C51.886 181.216 51.886 181.216 53.886 183.216 C56.094 183.491 56.094 183.491 58.839 183.517 C59.844 183.526 60.85 183.536 61.886 183.546 C91.369 183.389 91.369 183.389 102.136 170.529 C109.639 156.326 109.072 140.881 109.011 125.216 C109.008 124.552 109.006 123.887 109.003 123.203 C108.982 118.54 108.936 113.878 108.886 109.216 C108.878 108.088 108.871 106.96 108.864 105.798 C108.729 90.998 108.4 76.659 97.886 65.216 C89.975 59.243 82.242 59.936 72.74 59.866 C71.083 59.849 69.427 59.822 67.77 59.784 C65.379 59.729 62.989 59.707 60.597 59.693 C59.854 59.67 59.111 59.647 58.346 59.624 C56.262 59.633 56.262 59.633 52.886 60.216 Z " fill="#000000" transform="translate(852.1143646240234,14.78399658203125)"/>
<path d="M0 0 C9.997 8.098 12.421 19.528 13.332 31.875 C13.098 34.699 13.098 34.699 11.945 36.547 C9.406 38.131 7.512 38.133 4.535 38.137 C3.564 38.156 2.594 38.175 1.594 38.195 C-0.902 37.699 -0.902 37.699 -2.223 36 C-2.988 33.409 -3.142 31.149 -3.215 28.449 C-3.627 22.858 -5.224 18.941 -8.902 14.699 C-13.574 11.585 -18.437 11.982 -23.902 12.699 C-28.815 16.108 -31.548 21.034 -32.336 26.961 C-32.357 45.002 -24.353 55.608 -11.152 66.949 C2.844 79.148 12.715 91.031 13.535 110.387 C13.385 115.555 12.513 120.476 11.41 125.512 C11.262 126.217 11.114 126.922 10.961 127.649 C9.084 135.42 5.328 140.478 -1.59 144.574 C-2.542 145.149 -3.495 145.724 -4.477 146.316 C-11.612 150.384 -22.287 150.041 -30.141 147.758 C-40.409 142.787 -46.003 134.495 -48.902 123.699 C-50.182 117.534 -50.464 110.976 -49.902 104.699 C-47.293 102.089 -46.087 102.43 -42.465 102.449 C-41.497 102.444 -40.529 102.439 -39.531 102.434 C-36.902 102.699 -36.902 102.699 -33.902 104.699 C-33.496 107.676 -33.496 107.676 -33.402 111.324 C-33.004 118.947 -32.322 125.684 -25.902 130.699 C-20.844 132.385 -16.535 132.284 -11.59 130.512 C-6.624 127.163 -4.278 121.643 -3.531 115.789 C-3.231 101.556 -8.691 91.987 -19.16 82.695 C-20.536 81.514 -21.927 80.349 -23.336 79.207 C-24.902 77.699 -24.902 77.699 -25.902 74.699 C-27.226 74.013 -28.562 73.351 -29.902 72.699 C-39.768 65.903 -47.935 51.442 -49.125 39.455 C-49.779 25.626 -49.408 12.955 -39.066 2.613 C-38.352 1.982 -37.638 1.35 -36.902 0.699 C-36.291 0.15 -35.68 -0.399 -35.051 -0.965 C-25.497 -7.778 -9.349 -6.199 0 0 Z " fill="#000000" transform="translate(69.90234375,505.30078125)"/>
<path d="M0 0 C0.616 -0.005 0.616 -0.005 3.732 -0.029 C5.082 -0.029 6.432 -0.028 7.781 -0.026 C9.162 -0.03 10.542 -0.034 11.922 -0.039 C14.816 -0.047 17.71 -0.046 20.604 -0.041 C24.315 -0.035 28.025 -0.052 31.735 -0.075 C34.586 -0.09 37.436 -0.091 40.287 -0.088 C41.655 -0.088 43.023 -0.094 44.391 -0.104 C46.304 -0.116 48.216 -0.107 50.129 -0.098 C51.218 -0.098 52.306 -0.099 53.428 -0.1 C56.457 0.32 57.385 0.805 59.129 3.275 C59.492 5.65 59.492 5.65 59.442 8.275 C59.438 9.141 59.434 10.007 59.43 10.9 C59.129 13.275 59.129 13.275 57.129 16.275 C52.401 17.522 47.666 17.363 42.817 17.275 C35.263 17.141 35.263 17.141 34.129 18.275 C34.025 19.966 33.991 21.661 33.984 23.355 C33.981 23.905 33.981 23.905 33.963 26.69 C33.961 27.909 33.958 29.127 33.956 30.382 C33.945 32.338 33.935 34.295 33.925 36.252 C33.914 38.361 33.907 40.47 33.899 42.58 C33.884 46.97 33.86 51.36 33.834 55.751 C33.763 68.237 33.703 80.723 33.652 93.209 C33.624 100.101 33.589 106.992 33.546 113.884 C33.519 118.251 33.501 122.619 33.49 126.986 C33.478 130.337 33.454 133.687 33.432 137.038 C33.432 138.254 33.431 139.47 33.43 140.723 C33.421 141.827 33.411 142.931 33.401 144.068 C33.397 145.031 33.392 145.993 33.388 146.985 C33.129 149.275 33.129 149.275 31.129 151.275 C28.633 151.646 28.633 151.646 25.692 151.712 C24.724 151.752 23.755 151.792 22.758 151.833 C20.129 151.275 20.129 151.275 18.489 149.081 C17.014 146.037 16.749 144.179 16.737 140.821 C16.726 139.738 16.715 138.656 16.704 137.541 C16.707 136.363 16.71 135.186 16.713 133.973 C16.704 132.725 16.695 131.478 16.687 130.192 C16.666 126.779 16.658 123.367 16.656 119.954 C16.65 116.383 16.627 112.812 16.605 109.241 C16.567 102.481 16.543 95.722 16.524 88.962 C16.491 76.842 16.433 64.722 16.37 52.602 C16.349 48.346 16.333 44.09 16.323 39.835 C16.315 36.576 16.3 33.317 16.287 30.059 C16.286 28.873 16.285 27.688 16.284 26.467 C16.278 25.395 16.273 24.324 16.267 23.221 C16.265 22.284 16.262 21.348 16.259 20.383 C16.129 18.275 16.129 18.275 15.129 17.275 C11.388 17.282 7.657 17.353 3.918 17.49 C-4.367 17.638 -4.367 17.638 -7.871 14.275 C-8.429 11.427 -8.429 11.427 -8.308 8.212 C-8.286 7.149 -8.265 6.085 -8.242 4.99 C-7.515 -0.33 -4.679 0.02 0 0 Z " fill="#000000" transform="translate(158.870849609375,501.725341796875)"/>
<path d="M0 0 C0.928 -0.024 1.856 -0.049 2.812 -0.074 C3.256 -0.076 3.256 -0.076 5.5 -0.086 C6.315 -0.094 7.129 -0.102 7.969 -0.111 C10 0.375 10 0.375 11.235 2.23 C15.745 14.871 16.808 29.243 18.75 42.473 C18.876 43.324 19.001 44.175 19.131 45.052 C19.365 46.642 19.595 48.232 19.822 49.823 C20.665 55.582 21.717 61.296 22.803 67.014 C23.726 71.882 24.611 76.756 25.465 81.637 C25.585 82.322 25.705 83.007 25.828 83.712 C26.073 85.112 26.318 86.512 26.562 87.913 C28.36 98.208 30.183 108.493 32.188 118.75 C33.519 125.65 34.761 132.561 35.875 139.5 C36.02 140.349 36.164 141.197 36.313 142.072 C37.233 148.026 37.233 148.026 35 151.375 C32.285 151.844 32.285 151.844 29.062 151.875 C28.532 151.89 28.532 151.89 25.848 151.969 C23 151.375 23 151.375 21.254 149.508 C19.46 145.026 18.683 140.496 17.875 135.75 C17.541 133.862 17.205 131.974 16.867 130.086 C16.724 129.254 16.581 128.421 16.433 127.564 C16 125.375 16 125.375 15 122.375 C9.357 120.73 3.145 121.228 -2.688 121.25 C-3.732 121.246 -4.777 121.242 -5.854 121.238 C-6.854 121.24 -7.855 121.241 -8.887 121.242 C-9.796 121.243 -10.706 121.244 -11.643 121.246 C-14 121.375 -14 121.375 -17 122.375 C-17.66 124.11 -17.66 124.11 -18.062 126.348 C-18.14 126.754 -18.14 126.754 -18.535 128.813 C-18.689 129.658 -18.842 130.504 -19 131.375 C-19.328 132.958 -19.661 134.54 -20 136.121 C-20.165 136.895 -20.33 137.669 -20.5 138.467 C-20.665 139.241 -20.83 140.015 -21 140.812 C-21.165 141.614 -21.33 142.415 -21.5 143.24 C-22.774 149.149 -22.774 149.149 -25 151.375 C-27.531 151.676 -27.531 151.676 -30.5 151.688 C-31.48 151.704 -32.459 151.721 -33.469 151.738 C-36 151.375 -36 151.375 -38 148.375 C-38.464 141.201 -36.043 133.604 -34.518 126.636 C-33.208 120.592 -32.233 114.595 -31.492 108.453 C-31 105.375 -31 105.375 -30.041 102.174 C-28.98 98.302 -28.35 94.491 -27.852 90.52 C-27.651 89.005 -27.451 87.491 -27.25 85.977 C-27.199 85.585 -27.199 85.585 -26.941 83.606 C-25.35 71.439 -23.61 59.378 -21.035 47.375 C-19.41 39.749 -18.151 32.05 -16.838 24.365 C-12.596 0.017 -12.596 0.017 0 0 Z M-2 29.375 C-4.273 32.784 -4.58 34.962 -5.184 38.992 C-5.285 39.645 -5.386 40.298 -5.49 40.971 C-5.813 43.063 -6.126 45.156 -6.438 47.25 C-7.757 56.044 -9.237 64.711 -11.32 73.365 C-12.358 77.959 -13.01 82.583 -13.625 87.25 C-13.746 88.134 -13.867 89.019 -13.992 89.93 C-14.226 91.634 -14.454 93.34 -14.677 95.046 C-14.883 96.532 -15.114 98.016 -15.378 99.493 C-15.663 101.109 -15.842 102.742 -16 104.375 C-13.353 107.022 -12.096 106.632 -8.406 106.641 C-7.294 106.643 -6.181 106.646 -5.035 106.648 C-3.869 106.641 -2.702 106.633 -1.5 106.625 C-0.333 106.633 0.833 106.64 2.035 106.648 C3.148 106.646 4.26 106.643 5.406 106.641 C5.918 106.639 5.918 106.639 8.51 106.634 C11 106.375 11 106.375 13 104.375 C13.24 96.508 11.042 88.213 9.688 80.5 C9.465 79.224 9.243 77.947 9.014 76.632 C7.307 66.915 5.447 57.237 3.445 47.577 C2.993 45.34 2.57 43.099 2.156 40.855 C2.024 40.15 1.891 39.444 1.754 38.716 C1.401 36.829 1.056 34.94 0.711 33.051 C0 30.375 0 30.375 -2 29.375 Z " fill="#000000" transform="translate(324,501.625)"/>
<path d="M0 0 C0.824 -0.016 1.649 -0.032 2.498 -0.049 C3.291 -0.049 4.085 -0.05 4.902 -0.051 C5.628 -0.054 6.354 -0.057 7.101 -0.06 C9.671 0.428 10.498 1.238 12.062 3.312 C12.783 5.288 12.783 5.288 13.273 7.582 C13.464 8.457 13.654 9.331 13.85 10.232 C14.044 11.187 14.238 12.142 14.438 13.125 C14.647 14.12 14.857 15.114 15.073 16.139 C17.124 26.106 18.776 36.144 20.363 46.195 C21.295 52.046 22.329 57.65 24.062 63.312 C24.371 65.098 24.641 66.891 24.875 68.688 C25.871 75.527 27.201 82.287 28.562 89.062 C28.776 90.128 28.99 91.193 29.21 92.291 C29.625 94.341 30.044 96.391 30.469 98.439 C30.854 100.306 31.23 102.174 31.594 104.045 C32.019 106.148 32.532 108.233 33.062 110.312 C33.392 110.477 33.392 110.477 35.062 111.312 C35.123 110.77 35.123 110.77 35.43 108.023 C35.599 106.578 35.768 105.133 35.938 103.688 C36.016 102.975 36.095 102.262 36.176 101.527 C36.691 97.209 37.647 93.441 39.062 89.312 C39.385 87.278 39.651 85.235 39.875 83.188 C40.888 74.857 42.383 66.625 43.889 58.372 C45.26 50.85 46.574 43.322 47.84 35.781 C48.303 33.049 48.766 30.317 49.23 27.585 C49.534 25.786 49.834 23.987 50.13 22.187 C50.548 19.645 50.98 17.106 51.414 14.566 C51.536 13.806 51.658 13.046 51.783 12.262 C52.586 7.655 53.679 3.696 57.062 0.312 C60.054 0.159 63.007 0.081 66 0.062 C66.837 0.042 67.674 0.021 68.537 0 C69.338 -0.005 70.139 -0.01 70.965 -0.016 C71.333 -0.02 71.333 -0.02 73.199 -0.044 C75.062 0.312 75.062 0.312 77.062 3.312 C77.314 5.938 77.314 5.938 77.316 9.158 C77.322 10.378 77.328 11.598 77.334 12.854 C77.33 14.208 77.326 15.562 77.321 16.916 C77.324 18.34 77.328 19.764 77.332 21.188 C77.341 25.058 77.337 28.928 77.331 32.798 C77.326 36.844 77.331 40.891 77.334 44.937 C77.338 51.733 77.333 58.529 77.323 65.325 C77.312 73.186 77.316 81.047 77.327 88.908 C77.336 95.653 77.337 102.398 77.332 109.142 C77.329 113.173 77.328 117.203 77.335 121.234 C77.341 125.022 77.337 128.811 77.325 132.6 C77.323 133.992 77.323 135.384 77.328 136.776 C77.333 138.673 77.325 140.57 77.316 142.467 C77.316 143.53 77.315 144.592 77.314 145.687 C77.062 148.312 77.062 148.312 75.062 151.312 C72.531 151.676 72.531 151.676 69.562 151.625 C68.583 151.621 67.603 151.617 66.594 151.613 C64.062 151.312 64.062 151.312 62.062 149.312 C61.801 147.458 61.801 147.458 61.784 145.162 C61.773 144.292 61.762 143.423 61.75 142.527 C61.748 141.571 61.746 140.615 61.744 139.63 C61.734 138.625 61.724 137.621 61.713 136.585 C61.682 133.252 61.665 129.919 61.648 126.586 C61.63 124.28 61.61 121.973 61.59 119.667 C61.538 113.587 61.499 107.508 61.462 101.428 C61.422 95.228 61.371 89.028 61.32 82.828 C61.223 70.656 61.139 58.484 61.062 46.312 C60.413 48.19 59.769 50.069 59.128 51.949 C58.949 52.472 58.949 52.472 58.04 55.12 C56.511 60.114 55.849 65.144 55.188 70.312 C54.858 72.683 54.526 75.052 54.191 77.422 C54.014 78.686 53.836 79.95 53.653 81.252 C51.091 99.108 48.15 116.984 44.375 134.625 C44.28 135.075 44.28 135.075 43.799 137.351 C42.7 142.274 41.605 146.929 39.062 151.312 C36.469 152.066 36.469 152.066 33.562 151.875 C32.603 151.835 31.644 151.795 30.656 151.754 C28.062 151.312 28.062 151.312 25.062 149.312 C24.362 146.942 23.848 144.725 23.414 142.305 C23.345 141.951 23.345 141.951 22.998 140.159 C22.549 137.837 22.118 135.512 21.688 133.188 C21.378 131.569 21.068 129.951 20.756 128.333 C20.288 125.903 19.821 123.474 19.358 121.043 C18.185 114.883 16.894 108.753 15.562 102.625 C13.945 95.108 12.565 87.562 11.27 79.984 C11.113 79.073 10.957 78.162 10.796 77.223 C10.008 72.618 9.232 68.011 8.473 63.402 C8.186 61.707 7.9 60.011 7.613 58.316 C7.486 57.523 7.359 56.729 7.229 55.912 C6.907 54.033 6.494 52.17 6.062 50.312 C5.402 49.982 4.743 49.653 4.062 49.312 C4.067 50.546 4.071 51.78 4.076 53.051 C4.116 64.661 4.146 76.271 4.166 87.881 C4.177 93.85 4.191 99.82 4.213 105.789 C4.235 111.547 4.247 117.304 4.252 123.062 C4.256 125.262 4.263 127.461 4.274 129.661 C4.288 132.735 4.29 135.81 4.29 138.884 C4.293 139.342 4.293 139.342 4.311 141.657 C4.309 142.494 4.306 143.331 4.303 144.193 C4.305 144.921 4.307 145.648 4.309 146.397 C4.062 148.312 4.062 148.312 2.062 151.312 C-0.469 151.676 -0.469 151.676 -3.438 151.625 C-4.417 151.621 -5.397 151.617 -6.406 151.613 C-8.938 151.312 -8.938 151.312 -10.938 149.312 C-11.189 146.776 -11.189 146.776 -11.191 143.505 C-11.197 142.268 -11.203 141.031 -11.209 139.757 C-11.205 138.379 -11.201 137.001 -11.196 135.623 C-11.199 134.178 -11.203 132.732 -11.207 131.287 C-11.216 127.355 -11.212 123.424 -11.206 119.492 C-11.201 115.384 -11.206 111.275 -11.209 107.167 C-11.213 100.267 -11.208 93.367 -11.198 86.466 C-11.187 78.481 -11.191 70.495 -11.202 62.51 C-11.211 55.662 -11.212 48.815 -11.207 41.967 C-11.204 37.874 -11.203 33.78 -11.21 29.687 C-11.216 25.839 -11.212 21.991 -11.2 18.143 C-11.198 16.728 -11.198 15.313 -11.203 13.898 C-11.208 11.972 -11.2 10.046 -11.191 8.12 C-11.191 7.041 -11.19 5.961 -11.189 4.849 C-10.567 -1.417 -4.88 -0.019 0 0 Z " fill="#000000" transform="translate(439.9375,501.6875)"/>
<path d="M0 0 C0.92 -0.033 1.839 -0.066 2.787 -0.1 C3.671 -0.107 4.554 -0.114 5.465 -0.121 C5.87 -0.128 5.87 -0.128 7.918 -0.162 C10.062 0.438 10.062 0.438 11.76 2.513 C13.292 5.954 13.907 9.059 14.492 12.781 C14.608 13.495 14.723 14.209 14.842 14.944 C15.217 17.274 15.577 19.605 15.938 21.938 C16.196 23.558 16.455 25.179 16.716 26.8 C17.113 29.271 17.51 31.742 17.902 34.215 C19.126 41.908 20.462 49.578 21.812 57.25 C23.288 65.678 24.665 74.084 25.605 82.59 C26.104 85.698 27.066 88.455 28.062 91.438 C28.526 93.846 28.936 96.264 29.312 98.688 C30.333 105.128 31.431 111.552 32.59 117.969 C32.725 118.723 32.861 119.476 33.001 120.253 C34.112 126.432 34.112 126.432 34.669 129.479 C35.069 131.668 35.463 133.857 35.855 136.047 C36.088 137.325 36.32 138.604 36.559 139.921 C37.026 143.184 37.31 146.15 37.062 149.438 C34.397 152.103 32.844 151.86 29.125 152 C28.595 152.032 28.595 152.032 25.91 152.191 C23.062 151.438 23.062 151.438 21.316 148.547 C19.696 143.862 18.822 138.992 17.938 134.125 C17.604 132.337 17.268 130.549 16.93 128.762 C16.786 127.979 16.643 127.196 16.496 126.389 C16.062 124.438 16.062 124.438 15.062 122.438 C8.453 121.4 1.869 121.225 -4.812 121.188 C-5.748 121.167 -6.684 121.146 -7.648 121.125 C-8.097 121.122 -8.097 121.122 -10.367 121.109 C-11.174 121.1 -11.981 121.091 -12.812 121.081 C-15.528 121.536 -16.341 122.21 -17.938 124.438 C-18.598 126.718 -18.598 126.718 -19 129.367 C-19.079 129.847 -19.079 129.847 -19.477 132.277 C-19.629 133.279 -19.781 134.281 -19.938 135.312 C-21.916 148.238 -21.916 148.238 -24.938 151.438 C-27.602 151.961 -27.602 151.961 -30.562 151.812 C-31.054 151.796 -31.054 151.796 -33.539 151.711 C-35.938 151.438 -35.938 151.438 -36.938 150.438 C-37.176 144.733 -36.614 139.49 -35.582 133.891 C-35.44 133.09 -35.299 132.29 -35.152 131.466 C-34.691 128.872 -34.221 126.28 -33.75 123.688 C-33.426 121.874 -33.102 120.06 -32.78 118.245 C-31.983 113.775 -31.178 109.307 -30.371 104.839 C-29.563 100.363 -28.763 95.885 -27.962 91.407 C-27.568 89.207 -27.174 87.006 -26.778 84.805 C-25.67 78.623 -24.591 72.436 -23.543 66.242 C-21.009 51.268 -18.426 36.304 -15.65 21.372 C-15.343 19.715 -15.039 18.057 -14.737 16.399 C-14.317 14.097 -13.886 11.796 -13.453 9.496 C-13.329 8.808 -13.206 8.12 -13.078 7.412 C-11.483 -0.888 -7.38 0.046 0 0 Z M-1.938 27.438 C-3.339 32.069 -4.371 36.55 -5.086 41.348 C-5.183 41.989 -5.281 42.63 -5.381 43.291 C-5.588 44.656 -5.793 46.021 -5.997 47.386 C-6.532 50.973 -7.084 54.557 -7.637 58.141 C-7.746 58.852 -7.856 59.564 -7.969 60.298 C-9.584 70.69 -11.538 81.021 -13.488 91.354 C-13.579 91.843 -13.579 91.843 -14.039 94.316 C-14.206 95.208 -14.373 96.099 -14.545 97.018 C-15.007 99.865 -15.165 102.561 -14.938 105.438 C-13.197 107.178 -10.807 106.568 -8.441 106.57 C-7.326 106.572 -6.21 106.573 -5.061 106.574 C-3.886 106.57 -2.711 106.566 -1.5 106.562 C-0.329 106.566 0.842 106.57 2.049 106.574 C3.166 106.573 4.283 106.572 5.434 106.57 C5.949 106.57 5.949 106.57 8.556 106.567 C11.062 106.438 11.062 106.438 13.062 105.438 C13.262 96.176 11.456 86.88 9.75 77.812 C9.529 76.602 9.307 75.391 9.079 74.144 C7.601 66.128 6.022 58.134 4.378 50.15 C3.153 44.122 2.226 38.098 1.457 31.992 C1.062 29.438 1.062 29.438 0.062 27.438 C-0.597 27.438 -1.258 27.438 -1.938 27.438 Z " fill="#000000" transform="translate(622.9375,501.5625)"/>
<path d="M0 0 C1.109 0.001 2.217 0.001 3.36 0.002 C4.614 -0.004 5.869 -0.011 7.162 -0.017 C8.537 -0.008 9.912 0.001 11.287 0.011 C12.692 0.011 14.097 0.011 15.502 0.009 C18.448 0.01 21.393 0.02 24.339 0.038 C28.119 0.061 31.898 0.061 35.678 0.055 C38.579 0.051 41.481 0.058 44.382 0.068 C45.776 0.072 47.17 0.073 48.564 0.071 C50.51 0.071 52.456 0.085 54.403 0.1 C54.957 0.102 54.957 0.102 57.762 0.114 C60.381 0.374 60.381 0.374 62.381 2.374 C62.682 5.343 62.682 5.343 62.694 8.874 C62.71 10.04 62.727 11.205 62.745 12.405 C62.381 15.374 62.381 15.374 59.381 17.374 C57.113 17.601 57.113 17.601 54.495 17.57 C53.557 17.563 52.619 17.557 51.653 17.55 C51.164 17.542 51.164 17.542 48.694 17.499 C47.706 17.49 46.718 17.481 45.7 17.472 C43.26 17.448 40.821 17.415 38.381 17.374 C38.384 18.041 38.387 18.707 38.39 19.393 C38.456 35.601 38.505 51.809 38.537 68.017 C38.552 75.855 38.573 83.693 38.608 91.53 C38.637 98.362 38.657 105.192 38.663 112.024 C38.667 115.641 38.677 119.258 38.698 122.876 C38.723 126.913 38.723 130.949 38.722 134.987 C38.733 136.188 38.743 137.389 38.754 138.627 C38.75 139.726 38.746 140.825 38.742 141.958 C38.745 142.913 38.748 143.868 38.75 144.852 C38.312 147.848 37.489 149.222 35.381 151.374 C32.534 151.835 32.534 151.835 29.319 151.749 C28.255 151.736 27.192 151.723 26.096 151.71 C23.381 151.374 23.381 151.374 21.381 149.374 C21.128 147.103 21.128 147.103 21.123 144.212 C21.12 143.665 21.12 143.665 21.102 140.898 C21.105 139.692 21.107 138.487 21.11 137.245 C21.102 135.304 21.094 133.362 21.086 131.42 C21.079 129.329 21.077 127.239 21.076 125.148 C21.074 120.796 21.056 116.443 21.036 112.091 C20.986 101.28 20.955 90.469 20.934 79.658 C20.918 71.257 20.895 62.856 20.851 54.455 C20.829 50.126 20.821 45.796 20.824 41.466 C20.822 38.145 20.8 34.824 20.782 31.503 C20.786 30.298 20.791 29.093 20.796 27.851 C20.786 26.757 20.776 25.663 20.766 24.537 C20.764 23.582 20.762 22.628 20.76 21.645 C20.381 19.374 20.381 19.374 17.381 17.374 C15.436 17.179 15.436 17.179 13.256 17.249 C12.467 17.265 11.678 17.28 10.866 17.296 C10.046 17.322 9.226 17.348 8.381 17.374 C6.756 17.425 5.131 17.467 3.506 17.499 C3.147 17.511 3.147 17.511 1.327 17.57 C-0.619 17.374 -0.619 17.374 -3.619 15.374 C-4.547 12.588 -4.782 10.764 -4.806 7.874 C-4.82 7.101 -4.835 6.327 -4.849 5.53 C-4.472 2.001 -3.554 0.508 0 0 Z " fill="#000000" transform="translate(732.6187744140625,501.6257781982422)"/>
<path d="M0 0 C0.617 -0.003 0.617 -0.003 3.741 -0.019 C5.095 -0.016 6.448 -0.011 7.801 -0.007 C9.183 -0.008 10.566 -0.01 11.948 -0.013 C14.847 -0.016 17.745 -0.011 20.644 -0.002 C24.363 0.009 28.082 0.003 31.801 -0.009 C34.656 -0.016 37.511 -0.014 40.366 -0.009 C41.738 -0.008 43.109 -0.009 44.481 -0.014 C46.396 -0.019 48.311 -0.01 50.227 0 C51.318 0.002 52.408 0.003 53.532 0.005 C56.113 0.259 56.113 0.259 58.113 2.259 C58.449 4.974 58.449 4.974 58.488 8.196 C58.517 9.257 58.545 10.318 58.574 11.411 C58.113 14.259 58.113 14.259 56.66 16.13 C52.795 17.843 49.159 17.535 44.988 17.384 C36.324 17.153 36.324 17.153 34.113 18.259 C33.857 20.422 33.857 20.422 33.848 23.339 C33.84 24.44 33.832 25.54 33.823 26.674 C33.824 27.893 33.825 29.111 33.826 30.366 C33.816 32.323 33.805 34.279 33.795 36.236 C33.785 38.345 33.781 40.455 33.778 42.564 C33.771 46.954 33.749 51.345 33.725 55.735 C33.676 65.055 33.644 74.376 33.613 83.696 C33.58 93.754 33.544 103.811 33.489 113.868 C33.466 118.235 33.452 122.603 33.446 126.97 C33.441 129.032 33.432 131.093 33.421 133.154 C33.408 135.672 33.401 138.19 33.403 140.708 C33.395 141.811 33.387 142.915 33.378 144.052 C33.377 144.533 33.377 144.533 33.369 146.97 C33.113 149.259 33.113 149.259 31.113 151.259 C28.398 151.63 28.398 151.63 25.176 151.696 C24.115 151.736 23.054 151.776 21.961 151.817 C19.113 151.259 19.113 151.259 17.458 149.068 C15.991 146.004 15.743 144.133 15.753 140.76 C15.748 139.668 15.744 138.576 15.74 137.45 C15.751 136.262 15.762 135.074 15.773 133.849 C15.772 133.22 15.772 133.22 15.771 130.034 C15.771 126.59 15.788 123.147 15.809 119.703 C15.828 116.101 15.83 112.499 15.833 108.897 C15.842 102.079 15.867 95.262 15.897 88.444 C15.931 80.681 15.947 72.918 15.962 65.155 C15.994 49.19 16.046 33.224 16.113 17.259 C15.803 17.264 15.803 17.264 14.233 17.291 C11.422 17.332 8.612 17.358 5.801 17.384 C4.824 17.401 3.848 17.417 2.842 17.435 C2.373 17.438 2.373 17.438 0 17.454 C-0.864 17.465 -1.728 17.475 -2.618 17.486 C-4.887 17.259 -4.887 17.259 -7.887 15.259 C-8.25 12.29 -8.25 12.29 -8.199 8.759 C-8.195 7.593 -8.191 6.428 -8.188 5.228 C-7.626 -0.316 -4.868 0.007 0 0 Z " fill="#000000" transform="translate(871.88671875,501.7412109375)"/>
<path d="M0 0 C2.652 -0.266 2.652 -0.266 5.938 -0.25 C6.478 -0.253 6.478 -0.253 9.215 -0.266 C12 0 12 0 14 2 C14.252 4.536 14.252 4.536 14.254 7.808 C14.26 9.044 14.265 10.281 14.271 11.555 C14.267 12.933 14.263 14.311 14.259 15.689 C14.261 17.135 14.265 18.58 14.269 20.025 C14.279 23.957 14.275 27.889 14.269 31.821 C14.264 35.929 14.268 40.037 14.271 44.146 C14.275 51.046 14.27 57.946 14.261 64.846 C14.25 72.832 14.253 80.817 14.264 88.803 C14.273 95.65 14.275 102.498 14.27 109.345 C14.266 113.439 14.266 117.532 14.273 121.626 C14.278 125.474 14.274 129.321 14.263 133.169 C14.26 134.584 14.261 135.999 14.265 137.414 C14.271 139.34 14.263 141.266 14.254 143.192 C14.253 144.272 14.252 145.351 14.252 146.464 C14 149 14 149 12 151 C9.941 151.449 9.941 151.449 7.562 151.688 C6.78 151.774 5.998 151.86 5.191 151.949 C3 152 3 152 0 151 C-1.349 148.302 -1.126 146.214 -1.127 143.192 C-1.13 141.956 -1.133 140.719 -1.136 139.445 C-1.134 138.067 -1.132 136.689 -1.129 135.311 C-1.131 133.865 -1.133 132.42 -1.135 130.975 C-1.139 127.043 -1.137 123.111 -1.134 119.179 C-1.132 115.071 -1.134 110.963 -1.136 106.854 C-1.138 99.954 -1.135 93.054 -1.13 86.154 C-1.125 78.168 -1.127 70.183 -1.132 62.197 C-1.137 55.35 -1.137 48.502 -1.135 41.655 C-1.133 37.561 -1.133 33.468 -1.136 29.374 C-1.139 25.526 -1.137 21.678 -1.131 17.831 C-1.13 16.416 -1.13 15.001 -1.133 13.586 C-1.135 11.66 -1.131 9.734 -1.127 7.808 C-1.127 6.728 -1.126 5.649 -1.126 4.536 C-1 2 -1 2 0 0 Z " fill="#000000" transform="translate(1000,502)"/>
<path d="M0 0 C5.86 5.552 8.863 14.036 9 22 C8.062 24.062 8.062 24.062 6 25 C3.225 25.074 0.639 24.885 -2 24 C-3.935 21.098 -4.301 19.919 -4.812 16.625 C-5.729 12.124 -7.357 9.915 -11 7 C-14.951 5.024 -19.693 5.568 -24 6 C-29.367 8.537 -32.901 12.253 -34.6 18.045 C-36.12 25.201 -36.299 32.139 -36.25 39.438 C-36.258 40.588 -36.265 41.738 -36.273 42.924 C-36.25 53.184 -36.121 63.93 -29 72 C-24.292 75.424 -19.63 75.716 -14 75 C-9.681 73.64 -8.408 72.758 -6.25 68.75 C-5.418 66.255 -4.667 63.731 -4 61.188 C-3 58 -3 58 0 56 C6.541 55.541 6.541 55.541 9 58 C8.888 66.982 5.89 74.517 -0.738 80.594 C-8.429 86.46 -16.612 86.702 -26 86 C-28.861 85.355 -30.402 84.538 -33 83 C-33.592 82.66 -34.183 82.319 -34.793 81.969 C-44.603 75.777 -47.406 64.895 -49 54 C-49.215 49.418 -49.185 44.836 -49.188 40.25 C-49.2 39.025 -49.212 37.801 -49.225 36.539 C-49.245 23.621 -47.722 9.749 -37.625 0.438 C-26.87 -7.437 -10.866 -8.005 0 0 Z " fill="#000000" transform="translate(324,735)"/>
<path d="M0 0 C5.28 5.721 8.112 12.683 8.25 20.438 C5.911 22.776 5.416 22.711 2.25 22.688 C1.899 22.69 1.899 22.69 0.125 22.703 C-1.75 22.438 -1.75 22.438 -3.75 20.438 C-4.499 17.632 -5.088 14.812 -5.676 11.969 C-6.75 9.438 -6.75 9.438 -9.23 8.156 C-10.062 7.919 -10.893 7.682 -11.75 7.438 C-12.41 7.107 -13.07 6.778 -13.75 6.438 C-20.805 5.724 -26.208 5.801 -31.75 10.438 C-40.094 22.967 -38.53 47.859 -35.156 61.91 C-33.214 67.557 -30.759 71.295 -25.562 74.25 C-19.243 76.218 -14.199 76.599 -8.25 73.375 C-5.359 71.327 -4.834 70.709 -3.75 67.188 C-3.75 65.95 -3.75 64.712 -3.75 63.438 C-3.715 62.664 -3.68 61.891 -3.645 61.094 C-3.434 54.912 -3.434 54.912 -5.75 51.438 C-7.738 51.25 -7.738 51.25 -10.062 51.438 C-14.131 51.556 -16.687 51.401 -19.75 48.438 C-20.375 45.375 -20.375 45.375 -19.75 42.438 C-15.15 39.619 -9.835 40.143 -4.625 40.188 C-4.172 40.184 -4.172 40.184 -1.879 40.164 C-1.009 40.167 -0.139 40.169 0.758 40.172 C1.153 40.173 1.153 40.173 3.153 40.179 C5.25 40.438 5.25 40.438 8.25 42.438 C8.862 46.912 8.765 51.419 8.751 55.931 C8.75 58.166 8.791 60.398 8.836 62.633 C8.841 64.062 8.844 65.492 8.844 66.922 C8.851 68.218 8.858 69.515 8.865 70.851 C7.942 76.236 5.317 79.115 0.68 82.082 C-0.163 82.467 -1.006 82.853 -1.875 83.25 C-2.723 83.648 -3.571 84.047 -4.445 84.457 C-12.035 87.686 -22.992 88.06 -30.75 84.875 C-32.797 83.75 -32.797 83.75 -34.75 82.438 C-35.456 81.963 -36.163 81.489 -36.891 81 C-45.815 74.125 -49.234 63.074 -49.971 52.162 C-50.091 48.397 -50.13 44.642 -50.125 40.875 C-50.124 40.21 -50.123 39.545 -50.122 38.86 C-50.062 24.951 -49.775 10.494 -38.75 0.438 C-27.917 -7.631 -11.31 -6.426 0 0 Z " fill="#000000" transform="translate(758.75,734.5625)"/>
<path d="M0 0 C2.818 0.767 3.257 1.528 4.496 4.134 C5.101 5.814 5.661 7.512 6.184 9.22 C6.497 10.134 6.81 11.048 7.133 11.99 C8.204 15.177 9.199 18.381 10.184 21.595 C10.58 22.87 10.977 24.146 11.374 25.421 C14.455 35.348 17.421 45.308 20.227 55.317 C21.151 58.484 22.296 61.389 23.621 64.407 C26.768 71.833 29.676 79.479 30.184 87.595 C27.637 90.142 25.673 90.211 22.141 90.071 C20.184 89.595 20.184 89.595 17.996 87.032 C15.857 82.44 14.406 77.506 12.933 72.663 C11.392 67.699 11.392 67.699 9.184 66.595 C5.045 66.219 0.899 66.178 -3.254 66.095 C-3.833 66.068 -3.833 66.068 -6.764 65.931 C-9.923 65.879 -12.731 65.909 -15.816 66.595 C-17.98 69.704 -17.98 69.704 -18.816 73.595 C-19.155 74.724 -19.494 75.853 -19.844 77.017 C-20.453 79.244 -21.057 81.474 -21.656 83.704 C-22.936 86.892 -23.816 87.989 -26.816 89.595 C-33.372 90.039 -33.372 90.039 -34.816 88.595 C-34.491 79.866 -31.601 71.833 -28.941 63.595 C-28.489 62.17 -28.037 60.746 -27.586 59.321 C-25.387 52.393 -23.137 45.483 -20.816 38.595 C-20.266 36.946 -19.717 35.298 -19.168 33.649 C-18.287 31.005 -17.405 28.36 -16.521 25.717 C-15.102 21.472 -13.692 17.226 -12.32 12.966 C-12.096 12.274 -11.871 11.583 -11.64 10.871 C-11.042 9.026 -10.451 7.18 -9.859 5.333 C-7.873 0.118 -5.159 -0.147 0 0 Z M-3.816 20.595 C-5.726 23.459 -6.308 25.065 -7.035 28.341 C-7.245 29.261 -7.455 30.18 -7.672 31.128 C-7.885 32.086 -8.097 33.045 -8.316 34.032 C-8.739 35.928 -9.166 37.822 -9.598 39.716 C-9.784 40.556 -9.97 41.395 -10.162 42.26 C-10.816 44.595 -10.816 44.595 -11.881 46.7 C-13.204 49.38 -13.012 51.654 -12.816 54.595 C-10.659 56.752 -5.868 55.78 -2.879 55.782 C-2.46 55.788 -2.46 55.788 -0.342 55.819 C0.459 55.821 1.261 55.823 2.086 55.825 C2.455 55.827 2.455 55.827 4.32 55.838 C6.184 55.595 6.184 55.595 8.184 53.595 C7.953 51.513 7.953 51.513 7.184 48.595 C7.02 47.957 6.857 47.32 6.689 46.664 C1.353 26.104 1.353 26.104 -1.816 20.595 C-2.476 20.595 -3.136 20.595 -3.816 20.595 Z " fill="#000000" transform="translate(376.81640625,730.4052734375)"/>
<path d="M0 0 C0.561 0 0.561 0 3.397 0 C4.612 0.011 5.826 0.021 7.078 0.032 C8.318 0.035 9.558 0.037 10.836 0.04 C14.134 0.05 17.431 0.068 20.729 0.09 C24.094 0.11 27.459 0.119 30.824 0.129 C37.427 0.151 44.029 0.185 50.632 0.227 C51.882 6.852 51.882 6.852 49.632 10.227 C47.478 10.659 47.478 10.659 44.843 10.739 C43.902 10.774 42.961 10.81 41.992 10.846 C41.007 10.869 40.022 10.891 39.007 10.915 C38.511 10.932 38.511 10.932 36 11.018 C33.544 11.101 31.089 11.17 28.632 11.227 C28.624 12.175 28.616 13.122 28.608 14.099 C28.53 23.016 28.443 31.934 28.345 40.851 C28.295 45.436 28.248 50.021 28.21 54.605 C28.174 59.028 28.127 63.45 28.074 67.871 C28.056 69.561 28.041 71.251 28.029 72.941 C28.012 75.302 27.983 77.662 27.951 80.023 C27.949 80.727 27.947 81.43 27.945 82.155 C27.86 86.999 27.86 86.999 25.632 89.227 C23.757 89.563 23.757 89.563 21.632 89.602 C20.931 89.63 20.23 89.659 19.507 89.688 C17.632 89.227 17.632 89.227 16.529 87.651 C15.307 84.347 15.393 81.503 15.405 77.98 C15.405 77.258 15.405 76.535 15.404 75.791 C15.406 73.41 15.421 71.03 15.437 68.649 C15.441 66.996 15.444 65.342 15.446 63.689 C15.453 59.342 15.473 54.995 15.495 50.649 C15.515 46.211 15.525 41.774 15.535 37.336 C15.556 28.633 15.59 19.93 15.632 11.227 C15.042 11.212 14.452 11.198 13.844 11.183 C11.169 11.108 8.494 11.012 5.82 10.915 C4.891 10.892 3.962 10.869 3.005 10.846 C2.113 10.811 1.22 10.775 0.3 10.739 C-0.111 10.726 -0.111 10.726 -2.191 10.659 C-4.838 10.134 -5.757 9.363 -7.368 7.227 C-7.68 4.665 -7.68 4.665 -7.368 2.227 C-4.75 -0.391 -3.646 -0.016 0 0 Z " fill="#000000" transform="translate(412.36767578125,730.77294921875)"/>
<path d="M0 0 C1.815 -0.261 1.815 -0.261 4.213 -0.275 C5.107 -0.284 6.001 -0.294 6.923 -0.304 C7.896 -0.303 8.869 -0.302 9.871 -0.301 C10.367 -0.303 10.367 -0.303 12.879 -0.314 C14.983 -0.32 17.087 -0.32 19.192 -0.316 C22.42 -0.313 25.648 -0.336 28.877 -0.361 C30.917 -0.364 32.956 -0.364 34.996 -0.363 C35.967 -0.372 36.938 -0.382 37.938 -0.391 C38.387 -0.388 38.387 -0.388 40.658 -0.372 C41.054 -0.373 41.054 -0.373 43.058 -0.374 C45 0 45 0 47 3 C46.676 6.322 46.392 7.608 44 10 C40.943 10.303 40.943 10.303 37.059 10.379 C36.717 10.387 36.717 10.387 34.989 10.43 C32.805 10.484 30.622 10.524 28.438 10.562 C26.25 10.606 24.062 10.653 21.875 10.705 C19.893 10.752 17.91 10.789 15.927 10.826 C13 11 13 11 12 12 C11.913 13.781 11.893 15.565 11.902 17.348 C11.906 18.427 11.909 19.507 11.912 20.619 C11.92 21.755 11.929 22.892 11.938 24.062 C11.942 25.203 11.947 26.343 11.951 27.518 C11.963 30.345 11.979 33.173 12 36 C15.109 36.92 17.828 37.094 21.062 37.027 C22.024 37.015 22.986 37.003 23.977 36.99 C25.992 36.955 28.008 36.916 30.023 36.873 C30.985 36.862 31.947 36.851 32.938 36.84 C33.375 36.831 33.375 36.831 35.59 36.789 C38.244 37.021 39.824 37.459 42 39 C42.375 42.5 42.375 42.5 42 46 C39.208 48.792 37.368 48.312 33.461 48.414 C32.159 48.453 30.857 48.491 29.516 48.531 C28.135 48.563 26.755 48.594 25.375 48.625 C23.987 48.663 22.599 48.702 21.211 48.742 C17.807 48.837 14.404 48.922 11 49 C10.971 53.292 10.953 57.583 10.938 61.875 C10.929 63.098 10.921 64.322 10.912 65.582 C10.909 66.749 10.906 67.915 10.902 69.117 C10.897 70.196 10.892 71.275 10.886 72.386 C11 75 11 75 12 77 C15.003 77.287 15.003 77.287 18.992 77.344 C19.694 77.358 20.396 77.373 21.119 77.388 C23.371 77.435 25.623 77.469 27.875 77.5 C30.831 77.541 33.786 77.595 36.742 77.656 C37.401 77.666 37.401 77.666 40.738 77.713 C44 78 44 78 47 80 C47.312 83.5 47.312 83.5 47 87 C44.594 89.406 44.049 89.252 40.766 89.259 C39.891 89.265 39.017 89.271 38.116 89.278 C37.643 89.276 37.643 89.276 35.25 89.266 C34.281 89.268 33.312 89.269 32.313 89.271 C30.262 89.273 28.211 89.269 26.16 89.261 C23.013 89.25 19.866 89.261 16.719 89.273 C14.729 89.272 12.74 89.27 10.75 89.266 C9.804 89.27 8.858 89.274 7.884 89.278 C7.447 89.275 7.447 89.275 5.234 89.259 C4.463 89.257 3.692 89.256 2.897 89.254 C1 89 1 89 -1 87 C-1.193 84.3 -1.262 81.703 -1.243 79.002 C-1.245 78.176 -1.247 77.35 -1.249 76.499 C-1.252 73.759 -1.242 71.02 -1.23 68.281 C-1.229 66.383 -1.229 64.485 -1.229 62.587 C-1.228 58.606 -1.219 54.624 -1.206 50.643 C-1.189 45.532 -1.185 40.42 -1.186 35.309 C-1.185 31.388 -1.18 27.468 -1.173 23.547 C-1.17 21.662 -1.168 19.777 -1.167 17.892 C-1.165 15.261 -1.156 12.629 -1.145 9.998 C-1.146 9.214 -1.146 8.429 -1.147 7.621 C-1.114 2.229 -1.114 2.229 0 0 Z " fill="#000000" transform="translate(477,731)"/>
<path d="M0 0 C2.213 0.003 4.424 -0.02 6.636 -0.046 C16.875 -0.093 24.803 0.454 32.144 8.347 C37.874 16.007 38.806 26.113 36.679 35.191 C34.964 40.683 31.517 44.019 27.382 47.894 C25.617 50.316 25.617 50.316 25.601 53.05 C27.467 59.05 30.245 64.583 33.011 70.21 C33.409 71.02 33.807 71.831 34.216 72.665 C35.036 74.331 35.865 75.992 36.701 77.65 C37.092 78.453 37.483 79.257 37.886 80.085 C38.243 80.803 38.6 81.521 38.968 82.26 C39.739 84.704 39.503 85.94 38.617 88.316 C36.623 90.309 33.733 90.011 31.063 89.943 C26.27 88.714 24.714 83.459 22.617 79.316 C20.761 75.358 19.045 71.352 17.367 67.316 C16.512 65.272 15.652 63.23 14.789 61.191 C14.418 60.301 14.048 59.412 13.667 58.495 C12.617 56.316 12.617 56.316 10.617 54.316 C8.085 54.015 8.085 54.015 5.117 54.003 C4.627 53.995 4.627 53.995 2.148 53.952 C-0.383 54.316 -0.383 54.316 -2.383 57.316 C-2.563 60.271 -2.563 60.271 -2.473 63.847 C-2.453 65.132 -2.433 66.417 -2.413 67.741 C-2.369 69.782 -2.321 71.823 -2.267 73.864 C-2.219 75.837 -2.189 77.811 -2.161 79.784 C-2.132 80.965 -2.104 82.145 -2.074 83.361 C-2.383 86.316 -2.383 86.316 -3.678 88.2 C-6.548 90.078 -9.071 89.671 -12.383 89.316 C-14.079 88.293 -14.079 88.293 -15.383 86.316 C-15.674 83.567 -15.783 81.045 -15.756 78.296 C-15.759 77.479 -15.763 76.663 -15.767 75.822 C-15.775 73.12 -15.761 70.419 -15.747 67.718 C-15.746 65.844 -15.747 63.97 -15.748 62.095 C-15.748 58.167 -15.738 54.239 -15.719 50.311 C-15.697 45.267 -15.696 40.224 -15.703 35.181 C-15.706 31.311 -15.7 27.442 -15.69 23.572 C-15.686 21.712 -15.685 19.852 -15.686 17.992 C-15.687 15.396 -15.674 12.801 -15.658 10.206 C-15.66 9.432 -15.663 8.659 -15.665 7.862 C-15.563 -2.296 -8.054 -0.024 0 0 Z M-3.383 13.316 C-3.642 16.087 -3.642 16.087 -3.649 19.409 C-3.652 20.604 -3.654 21.799 -3.657 23.031 C-3.649 24.28 -3.641 25.529 -3.633 26.816 C-3.641 28.065 -3.649 29.314 -3.657 30.601 C-3.654 31.796 -3.652 32.991 -3.649 34.222 C-3.647 35.318 -3.644 36.415 -3.642 37.544 C-3.383 40.316 -3.383 40.316 -1.383 43.316 C5.971 44.378 13.043 43.782 19.617 40.316 C25.409 34.375 25.161 28.215 24.617 20.316 C23.202 15.364 20.873 13.063 16.281 11.007 C10.285 9.451 0.292 7.803 -3.383 13.316 Z " fill="#000000" transform="translate(552.38330078125,730.684326171875)"/>
<path d="M0 0 C0.403 -0.001 0.403 -0.001 2.441 -0.008 C4.438 0.125 4.438 0.125 5.438 1.125 C5.543 3.756 5.584 6.362 5.583 8.994 C5.586 9.818 5.589 10.642 5.593 11.492 C5.602 14.232 5.604 16.971 5.605 19.711 C5.609 21.608 5.612 23.505 5.616 25.402 C5.622 29.385 5.623 33.368 5.623 37.352 C5.623 42.462 5.636 47.572 5.654 52.683 C5.665 56.603 5.667 60.523 5.666 64.444 C5.667 66.328 5.672 68.212 5.68 70.097 C5.689 72.73 5.686 75.364 5.68 77.998 C5.686 78.78 5.692 79.562 5.697 80.369 C5.675 84.163 5.595 85.888 3.438 89.125 C1.562 89.488 1.562 89.488 -0.562 89.438 C-1.264 89.434 -1.965 89.43 -2.688 89.426 C-4.562 89.125 -4.562 89.125 -6.562 87.125 C-6.761 84.39 -6.835 81.756 -6.821 79.019 C-6.825 78.182 -6.828 77.344 -6.832 76.481 C-6.841 73.705 -6.835 70.929 -6.828 68.152 C-6.829 66.229 -6.831 64.307 -6.834 62.384 C-6.837 58.351 -6.833 54.319 -6.823 50.286 C-6.812 45.105 -6.818 39.924 -6.83 34.743 C-6.838 30.772 -6.835 26.801 -6.83 22.83 C-6.829 20.919 -6.83 19.008 -6.835 17.096 C-6.84 14.431 -6.832 11.766 -6.821 9.101 C-6.825 8.304 -6.829 7.506 -6.834 6.685 C-6.819 4.829 -6.702 2.975 -6.562 1.125 C-4.183 -0.065 -2.648 -0.008 0 0 Z " fill="#000000" transform="translate(610.5625,730.875)"/>
<path d="M0 0 C0.43 -0.019 0.43 -0.019 2.605 -0.113 C3.458 -0.179 4.31 -0.245 5.188 -0.312 C9.48 1.148 10.725 4.723 12.793 8.574 C13.272 9.424 13.752 10.274 14.246 11.149 C15.806 13.924 17.334 16.715 18.855 19.512 C19.372 20.45 19.888 21.387 20.42 22.354 C23.133 27.327 25.608 32.312 27.852 37.513 C29.591 41.322 31.79 44.85 33.969 48.422 C35.763 51.453 36.905 54.009 37.785 57.441 C38.118 58.475 38.45 59.509 38.793 60.574 C40.856 61.27 40.856 61.27 42.793 61.574 C42.791 60.825 42.789 60.075 42.786 59.303 C42.766 52.254 42.751 45.206 42.741 38.157 C42.736 34.533 42.729 30.909 42.718 27.284 C42.707 23.79 42.701 20.295 42.698 16.8 C42.695 14.812 42.688 12.824 42.68 10.835 C42.68 9.634 42.68 8.433 42.679 7.196 C42.677 6.132 42.675 5.068 42.673 3.972 C42.793 1.574 42.793 1.574 43.793 0.574 C45.457 0.476 47.126 0.444 48.793 0.449 C49.247 0.448 49.247 0.448 51.543 0.441 C53.793 0.574 53.793 0.574 54.793 1.574 C54.904 4.205 54.95 6.811 54.954 9.443 C54.957 9.855 54.957 9.855 54.969 11.941 C54.984 14.681 54.991 17.42 54.996 20.16 C55.002 22.057 55.008 23.954 55.013 25.851 C55.024 29.835 55.03 33.818 55.033 37.801 C55.039 42.911 55.063 48.021 55.091 53.132 C55.11 57.052 55.115 60.973 55.117 64.893 C55.12 66.777 55.128 68.662 55.141 70.546 C55.158 73.18 55.156 75.813 55.149 78.447 C55.154 78.838 55.154 78.838 55.177 80.818 C55.137 86.053 55.137 86.053 53.505 88.527 C51.058 90.023 48.751 90.483 45.902 90.348 C41.016 88.556 39.036 82.932 36.793 78.574 C36.484 77.974 36.175 77.375 35.856 76.757 C34.167 73.458 32.519 70.141 30.891 66.812 C28.444 61.83 25.85 56.931 23.232 52.037 C21.231 48.293 19.257 44.54 17.328 40.758 C17.126 40.366 17.126 40.366 16.105 38.383 C15.329 36.873 14.56 35.36 13.799 33.842 C11.13 28.687 11.13 28.687 7.793 27.574 C7.797 28.321 7.802 29.069 7.806 29.839 C7.846 36.872 7.877 43.906 7.897 50.94 C7.907 54.556 7.921 58.172 7.944 61.789 C7.966 65.277 7.978 68.765 7.983 72.254 C7.988 74.236 8.004 76.218 8.02 78.2 C8.02 79.401 8.02 80.602 8.02 81.839 C8.024 82.901 8.029 83.962 8.033 85.056 C7.793 87.574 7.793 87.574 5.793 89.574 C-0.29 90.127 -0.29 90.127 -2.906 88.549 C-4.941 85.46 -4.615 82.239 -4.579 78.662 C-4.583 77.857 -4.587 77.052 -4.59 76.222 C-4.599 73.558 -4.585 70.895 -4.57 68.23 C-4.57 66.381 -4.57 64.532 -4.572 62.682 C-4.572 58.805 -4.561 54.928 -4.543 51.051 C-4.521 46.078 -4.52 41.104 -4.527 36.131 C-4.53 32.312 -4.523 28.492 -4.514 24.673 C-4.51 22.839 -4.509 21.005 -4.51 19.171 C-4.511 16.609 -4.498 14.048 -4.482 11.486 C-4.484 10.726 -4.487 9.965 -4.489 9.181 C-4.408 1.147 -4.408 1.147 0 0 Z " fill="#000000" transform="translate(638.20703125,730.42578125)"/>
</svg>
